<?xml version="1.0" encoding="utf-8"?>
<!-- Generator: Adobe Illustrator 23.0.3, SVG Export Plug-In . SVG Version: 6.00 Build 0)  -->
<svg version="1.1" id="Capa_1" xmlns="http://www.w3.org/2000/svg" xmlns:xlink="http://www.w3.org/1999/xlink" x="0px" y="0px"
	 viewBox="0 0 1200 1200" enable-background="new 0 0 1200 1200" xml:space="preserve">
<g>
	<path fill="#594121" d="M858.836,423.586c-4.34-0.161-8.18-1.094-11.966-2.001c-109.964-99.142-254.942-163.443-406.028-156.775
		c0.608-0.754,1.217-1.509,1.796-2.211c23.239-3.925,46.8-6.4,70.646-4.922c12.936,0.802,25.887,1.428,38.798,2.526
		c14.522,1.235,29.021,2.778,43.502,4.434c13.136,1.502,26.245,3.243,39.343,5.043c24.63,3.384,48.855,8.779,72.771,15.48
		c13.76,3.855,27.377,8.234,40.991,12.588c14.169,4.533,26.125,12.492,36.519,23.202c28.604,29.472,52.726,62.161,71.904,98.485
		C857.726,420.596,858.13,421.866,858.836,423.586z M357.938,387.284c1.708-1.317,2.765-1.962,3.614-2.815
		c6.096-6.126,12.125-12.318,18.225-18.441c3.811-3.825,7.671-7.603,11.586-11.321c1.162-1.104,2.534-2.017,3.904-2.867
		c1.416-0.88,3.474,0.387,3.406,2.116c-0.051,1.322-0.11,2.769-0.662,3.923c-1.395,2.914-2.908,5.797-4.659,8.509
		c-9.735,15.083-21.464,28.443-35.14,40.07c-6.586,5.599-13.289,11.058-19.906,16.621c-1.646,1.384-3.568,2.669-4.666,4.434
		c-4.244,6.819-8.144,13.846-10.384,22.073c9.212-5.587,18.395-11.22,27.641-16.749c2.454-1.467,4.819-3.06,7.218-4.603
		c36.117-43.119,60.523-96.394,74.379-152.742C405.396,311.047,362.987,373.975,357.938,387.284z"/>
	<path fill="#75623F" d="M846.87,421.585c-0.632-0.151-1.264-0.304-1.895-0.45c-11.297-2.617-22.624-5.118-33.863-7.964
		c-19.463-4.928-37.863-12.58-55.429-22.27c-5.201-2.869-10.319-5.904-15.64-8.53c-2.601-1.284-5.534-2.03-8.4-2.594
		c-1.96-0.385-3.701,2.143-2.672,3.844c1.659,2.74,3.318,5.672,5.654,7.768c4.204,3.77,8.733,7.246,13.437,10.376
		c15.85,10.548,33.217,17.9,51.271,23.726c2.527,0.815,5.056,1.624,8.619,2.767c-1.644,1.067-2.333,1.833-3.14,1.989
		c-8.161,1.58-16.125-0.153-24.087-1.629c-28.143-5.218-54.598-14.92-79.054-29.892c-13.355-8.176-26.648-16.457-40.075-24.513
		c-3.669-2.202-7.667-3.896-11.635-5.529c-1.022-0.421-2.981-0.152-3.634,0.581c-0.608,0.682-0.54,2.767,0.081,3.602
		c2.397,3.223,4.778,6.617,7.818,9.17c6.817,5.727,13.885,11.183,21.115,16.382c6.351,4.567,13.069,8.621,19.606,12.93
		c1.495,0.986,2.913,2.088,5.018,3.606c-1.487,0.488-2.151,0.926-2.78,0.88c-13.73-1.005-27.462-1.912-41.105-3.943
		c-7.935-1.181-14.895-4.683-21.945-8.018c-31.229-14.774-59.297-34.37-85.342-56.883c-21.086-18.227-40.398-38.254-58.265-59.662
		c-2.768-3.317-5.651-6.54-8.55-9.744c-1.083-1.196-2.283-2.319-3.568-3.293c-6.229-4.719-12.102-2.618-12.661,5.071
		c-2.031,27.898-13.985,51.866-28.941,74.675c-10.426,15.902-22.77,30.361-37.105,42.713
		c-13.166,11.344-26.923,22.051-41.591,31.484c36.117-43.119,60.523-96.394,74.379-152.742c2.991-3.924,5.803-7.529,8.349-10.683
		C591.928,258.142,736.906,322.443,846.87,421.585z"/>
	<path fill="#998C89" d="M594.115,823.674c-34.276-5.273-64.682-20.212-92.652-39.132c0.018-3.15,0.02-6.3,0.046-9.45
		c0.012-1.533,0.25-3.065,0.432-5.147c3.529,0.548,5.909,2.352,8.422,3.714c25.187,13.653,51.306,25.248,78.087,35.377
		c3.529,1.335,7.136,2.468,10.732,3.617c2.715,0.867,5.344,0.68,7.689-1.116c7.359-5.634,15.985-8.924,24.141-13.084
		c14.93-7.614,29.206-16.335,43.199-25.539c2.421-1.592,4.972-2.987,8.499-5.09c0,2.587,0.048,3.655-0.007,4.718
		c-0.456,8.797-0.938,17.592-1.407,26.389C656.699,817.591,629.835,830.818,594.115,823.674z M473.171,854.649
		c-1.142,0.326-2.281,0.657-3.425,0.978c-1.081,0.303-1.988,1.225-3.537,2.222c35.549,17.547,70.35,34.725,105.218,51.935
		c5.66-2.417,11.276-5.042,17.056-7.238c11.597-4.406,23.237-8.71,34.941-12.82c29.019-10.19,57.794-21.012,86.204-32.794
		c2.558-1.061,5.581-1.538,7.537-4.156c-5.501-1.602-10.875-3.123-16.202-4.687C628.357,885.882,541.237,903.907,473.171,854.649z
		 M879.825,460.486c-2.925-4.509-5.119-9.487-7.731-14.206c-0.886-1.601-2.068-3.037-3.041-4.441
		c-6.364-0.762-11.41,1.243-16.012,4.953c-0.211,2.038-0.515,3.904-0.569,5.778c-0.057,1.968-1.279,4.045,0.18,6.025
		c3.605-1.676,6.925-3.403,10.387-4.771c2.697-1.065,4.772-0.459,5.856,1.142c1.389,2.052,1.026,4.162-0.055,6.12
		c-0.771,1.398-1.858,2.638-2.899,3.867c-1.382,1.632-2.857,3.185-4.307,4.787c0.595,3.335,1.275,6.488,1.688,9.676
		c0.346,2.661,0.742,5.398,0.487,8.04c-0.83,8.587-1.869,17.158-3.017,25.709c-0.278,2.075-1.14,4.118-2.012,6.05
		c-0.343,0.76-1.421,1.022-2.387,0.876c-0.333,5.807-0.934,11.617-1.867,17.37c7.956-12.67,15.089-25.787,20.365-39.861
		c2.737-7.301,4.888-14.841,6.945-22.371C883.219,470.164,882.901,465.228,879.825,460.486z M316.613,501.015
		c-2.346-8.208-3.956-16.628-5.886-24.954c-1.915-1.013-3.14,0.017-3.934,1.554c-3.46,6.7-6.836,13.444-10.372,20.425
		c4.789,12.489,11.058,23.95,18.215,34.796c1.989-5.475,4.547-10.532,7.767-14.882C320.266,512.377,318.251,506.745,316.613,501.015
		z M329.071,489.347c-0.491-3.093-1.352-5.7-5.358-6.457c-0.108,1.204-0.4,2.216-0.252,3.16c1.321,8.455,3.027,16.817,5.342,25.03
		c1.158-0.976,2.366-1.888,3.645-2.709c-0.05-0.24-0.121-0.473-0.17-0.713C331.033,501.59,330.042,495.467,329.071,489.347z"/>
	<path fill="#E4C8AC" d="M362.033,572.422c3.648,3.642,5.905,5.934,8.204,8.184c12.823,12.552,27.769,21.373,45.308,25.517
		c3.929,0.928,7.947,1.582,11.962,2.035c28.742,3.24,54.867-2.55,76.593-22.792c4.534-4.224,8.869-8.737,12.789-13.531
		c14.628-17.889,23.974-38.447,29.318-60.791c2.444-10.219,3.919-20.669,5.955-31.671c12.359-11.902,27.651-19.142,45.518-20.82
		c7.678-0.721,17.194,1.867,26.591,7.261c0.209,1.793,0.563,3.89,0.682,5.999c1.185,20.901,4.842,41.293,12.545,60.842
		c6.903,17.52,16.35,33.458,29.477,47.097c11.25,11.69,24.347,20.474,39.844,25.519c0.984,0.32,1.984,0.594,4.612,1.377
		c-3.81,0.985-5.985,1.76-8.226,2.094c-25.361,3.782-50.711,7.649-76.109,11.171c-14.976,2.076-30.025,3.637-45.053,5.312
		c-12.614,1.406-25.24,2.713-37.873,3.924c-5.642,0.541-11.317,0.732-16.976,1.097c-8.356,0.539-16.72,0.989-25.06,1.714
		c-2.06,0.179-4.137,1.073-6.031,1.996c-1.698,0.826-1.488,3.894,0.318,4.665c1.696,0.724,3.562,1.348,5.381,1.438
		c8.476,0.424,16.21,3.169,23.991,6.401c17.691,7.349,35.657,14.034,53.413,21.23c9.09,3.685,18.451,6.251,28.152,7.135
		c12.406,1.131,24.306-1.584,35.168-7.5c8.988-4.896,17.749-10.35,26.03-16.358c6.367-4.618,12.977-8.711,19.705-12.718
		c7.417-4.418,14.642-9.159,21.925-13.8c1.363-0.869,2.645-1.878,3.9-2.902c5.665-4.621,6.067-5.912,4.108-13.403
		c3.018,0.186,5.937,0.431,8.861,0.527c2.7,0.088,5.407-0.056,8.107,0.023c29.579,0.869,54.282-9.889,74.577-31.204
		c0.901-0.946,1.896-1.802,2.781-2.637c2.348,1.061,1.529,2.866,1.46,4.291c-0.79,16.19-1.669,32.374-2.484,48.563
		c-0.19,3.777-0.332,7.562-0.314,11.343c0.043,9.164-3.333,16.488-10.227,22.77c-23.421,21.342-48.433,40.665-74.446,58.651
		c-23.103,15.974-46.726,31.199-70.177,46.668c-13.772,9.084-28.34,16.784-43.008,24.298c-5.522,2.829-11.023,5.701-16.822,8.703
		c-0.479-0.078-1.322-0.048-2.023-0.351c-47.719-20.574-93.631-44.535-136.806-73.54c-29.412-19.759-57.41-41.398-84.24-64.542
		c-2.247-1.939-4.654-3.813-6.442-6.137c-2.982-3.876-5.027-8.178-5.025-13.361c0.008-19.996-0.175-39.993-0.255-59.989
		C361.699,579.603,361.876,576.982,362.033,572.422z M562.343,578.857c6.226,2.6,19.408,5.302,24.71,5.073
		c0.231-1.215,0.667-2.502,0.69-3.796c0.216-11.857,0.361-23.716,0.523-35.574c0.004-0.268,0.038-0.596-0.094-0.794
		c-0.556-0.837-1.03-2.089-1.799-2.325c-0.829-0.254-2.166,0.197-2.902,0.803c-1.224,1.008-2.344,2.265-3.162,3.625
		c-5.558,9.238-11.08,18.499-16.467,27.838C562.964,575.226,562.814,577.166,562.343,578.857z M700.963,848.089
		c-2.708-0.795-5.422-1.574-8.097-2.434c-11.542-3.709-13.518-6.575-12.96-18.924c0.418-9.269,0.897-18.535,1.391-27.8
		c-24.597,18.66-51.461,31.887-87.181,24.743c-34.276-5.273-64.682-20.212-92.652-39.132c-0.037,6.303-0.081,12.606-0.091,18.909
		c-0.018,12.161-0.402,24.294-1.969,36.378c-0.458,3.536-1.82,5.756-5.228,7.372c-6.776,3.214-13.857,5.408-21.005,7.448
		C541.237,903.907,628.357,885.882,700.963,848.089z M589.33,400.849c1.238-0.011,2.728,0.502,4.142-1.749
		c-7.099-4.634-14.296-9.181-21.131-14.224c-6.957-5.133-13.909-10.285-20.658-15.685c-6.538-5.23-12.949-10.638-19.17-16.24
		c-6.424-5.785-12.679-11.771-18.774-17.902c-6.094-6.13-12.036-12.426-17.789-18.877c-5.716-6.409-11.113-13.101-16.691-19.718
		c-0.628,0.725-1.067,1.06-1.269,1.504c-0.332,0.732-0.59,1.518-0.743,2.308c-3.166,16.359-9.676,31.423-17.67,45.927
		c-8.914,16.173-19.615,31.049-32.114,44.642c-1.979,2.152-3.839,4.415-6.96,8.019C478.119,400.579,533.716,401.333,589.33,400.849z
		 M854.723,518.953c-0.564-2.05-1.013-4.185-1.103-6.301c-0.262-6.199-0.267-12.409-0.479-18.611
		c-0.138-4.003-0.31-8.029-3.385-11.964c-0.522,1.698-1.321,3.363-1.525,5.099c-2.488,21.073-7.96,41.255-17.571,60.252
		c-0.956,1.89-1.811,3.99-2.031,6.064c-0.709,6.703-1.128,13.439-1.581,20.167c-0.062,0.93-0.455,2.167,1.3,2.839
		c0.574-0.657,1.324-1.346,1.874-2.17c6.282-9.425,12.533-18.87,18.792-28.31c1.877-2.83,3.708-5.686,5.51-8.557
		c0.933-5.753,1.534-11.563,1.867-17.37C855.61,519.972,854.899,519.593,854.723,518.953z M332.323,522.115
		c1.021,2.768,1.79,5.64,2.479,8.512c0.334,1.393-0.185,2.625-1.884,2.876c-5.088-3.832-6.256-4.716-8.553-10.395
		c-0.688-1.702-1.305-3.437-1.963-5.154c-3.219,4.35-5.778,9.407-7.767,14.882c9.481,14.368,20.566,27.626,32.276,40.463
		c0.572-0.178,1.144-0.356,1.716-0.534c-0.315-5.889-0.696-11.775-0.921-17.667c-0.136-3.564-0.94-6.841-2.551-10.074
		c-5.811-11.662-10.027-23.909-12.706-36.655c-1.279,0.821-2.487,1.734-3.645,2.709
		C329.849,514.789,330.982,518.477,332.323,522.115z M566.553,443.338c4.428-1.936,8.978-3.723,13.637-4.962
		c4.915-1.308,9.995-2.337,15.056-2.661c4.792-0.307,9.658,0.385,14.481,0.775c4.724,0.382,9.007,3.042,14.296,3.217
		c0-3.918,0.083-7.411-0.023-10.898c-0.104-3.421,0.602-6.942-0.758-10.435c-1.277-0.207-2.309-0.536-3.334-0.518
		c-21.304,0.377-42.607,0.786-63.91,1.232c-0.74,0.015-1.47,0.468-2.117,0.688c-1.132,6.367-1.281,23.563-0.197,30.111
		C558.054,447.637,562.197,445.243,566.553,443.338z"/>
	<path fill="#FFFFFF" d="M176.578,722.18c-3.586-0.672-4.653-2.486-4.986-4.756c-1.019-6.933-2.276-13.855-2.827-20.829
		c-0.941-11.909,0.26-23.806,1.969-35.555c13.12-90.182,36.317-177.736,70.739-262.109c21.333-52.292,46.013-103.076,74.439-151.958
		c2.851-4.903,5.852-9.72,8.845-14.539c0.676-1.088,1.608-2.017,2.499-3.113c14.211,8.773,29.629,12.286,45.661,13.145
		c42.778,2.294,80.994-10.132,114.799-36.318c3.415-2.645,6.745-5.415,9.964-8.295c13.416-11.999,21.556-26.897,23.864-44.775
		c1.859-14.399,1.002-28.635-4.43-42.266c-1.98-4.97-4.704-9.644-7.125-14.526c0.534-1.663,2.064-1.3,3.3-1.317
		c29.18-0.404,58.365-1.217,87.541-0.998c19.976,0.15,39.968,1.36,59.902,2.8c21.54,1.557,43.017,3.964,64.279,7.926
		c2.377,0.443,4.711,1.115,7.061,1.68c0.48,2.772-1.762,3.86-2.99,5.411c-13.418,16.948-22.021,36.115-23.786,57.605
		c-2.317,28.2,4.429,54.383,22.569,76.575c16.14,19.746,36.482,33.679,61.723,39.332c20.311,4.549,40.691,4.888,60.944-0.702
		c12.727-3.513,24.115-9.56,33.675-18.664c7.625-7.262,14.839-14.957,22.237-22.457c0.909-0.922,1.833-1.828,2.946-2.937
		c2.863,1.99,3.745,4.94,5.024,7.493c13.565,27.084,25.26,54.925,34.389,83.848c8.712,27.599,15.332,55.713,20.959,84.053
		c5.1,25.686,9.796,51.46,14.095,77.292c2.392,14.373,3.793,28.923,5.305,43.428c1.597,15.313,3.14,30.646,4.09,46.008
		c1.534,24.807,2.573,49.646,3.789,74.472c0.118,2.418,0.016,4.847,0.016,7.268c-2.543,0.671-2.652-1.301-3.245-2.603
		c-10.076-22.116-19.908-44.347-30.243-66.341c-23.428-49.863-46.58-99.884-72.347-148.587
		c-14.385-27.189-29.026-54.326-46.556-79.726c-14.471-20.966-30.988-40.224-48.634-58.553
		c-11.26-11.696-24.522-20.178-39.842-25.596c-28.8-10.186-58.221-18.061-88.121-24.241c-23.823-4.924-47.881-8.332-72.051-10.833
		c-28.478-2.948-56.972-5.969-85.64-6.329c-19.749-0.248-39.436,0.495-58.677,5.701c-1.548,0.419-3.303,1.016-4.754,0.666
		c-3.73-0.898-6.309,0.956-8.743,3.112c-3.029,2.683-5.962,5.494-8.743,8.433c-16.013,16.922-30.003,35.47-43.463,54.432
		c-23.483,33.083-44.486,67.723-64.632,102.905c-1.86,3.248-4.377,6.112-6.413,9.269c-3.608,5.593-8.16,10.681-8.875,17.809
		c-0.203,2.026-1.559,3.978-2.554,5.876c-31.592,60.286-61.008,121.644-90.254,183.086c-12.55,26.365-23.01,53.58-33.265,80.885
		C178.979,716.509,177.801,719.192,176.578,722.18z M610.769,205.128c1.942,2.862,3.605,5.617,5.563,8.144
		c7.531,9.721,16.931,15.937,29.801,14.662c8.865-0.878,16.427-5.018,23.24-10.558c1.002-0.815,1.737-2.067,2.334-3.249
		c1.805-3.578-0.693-7.613-4.611-7.136c-2.904,0.354-5.704,1.514-8.572,2.227c-4.175,1.037-8.332,2.226-12.567,2.908
		c-3.218,0.518-6.427-0.07-9.362-1.823c-6.65-3.972-10.635-9.828-12.292-17.285c-0.263-1.182,0.301-2.548,0.471-3.752
		c8.434-2.862,15.08-7.956,21.478-13.388c1.83-1.554,3.545-3.398,4.821-5.42c3.342-5.294,1.482-10.942-4.349-13.209
		c-2.492-0.969-5.2-1.454-7.852-1.926c-9.297-1.656-18.608-3.235-27.922-4.793c-3.462-0.579-6.939-1.086-10.423-1.51
		c-5.252-0.639-7.67,2.116-7.073,6.973c0.719,5.852,2.783,10.856,6.277,15.521c2.869,3.831,6.372,7.259,8.487,11.816
		c-1.288,1.987-2.376,3.844-3.637,5.576c-4.291,5.895-10.081,8.65-17.411,8.538c-4.112-0.063-8.044-0.672-11.896-2.052
		c-3.81-1.366-7.643-2.664-11.466-3.993c-2.028-0.705-3.846-0.101-5.159,1.369c-1.358,1.52-1.617,3.666-0.547,5.323
		c2.474,3.828,5.326,7.586,9.452,9.619c3.576,1.761,7.594,2.664,11.467,3.772c4.726,1.351,9.475,1.575,14.417,0.779
		C599.704,211.248,605.236,208.708,610.769,205.128z M295.443,1032.059c0.825-0.38,1.145-0.429,1.299-0.616
		c0.686-0.828,1.382-1.658,1.971-2.555c9.55-14.551,21.161-27.283,34.143-38.817c19.933-17.711,42.242-31.807,66.288-43.157
		c42.712-20.161,87.834-31.067,134.829-34.638c1.378-0.105,3.274,0.709,4.231-2.082c-22.333-10.613-44.745-21.129-67.047-31.871
		c-22.363-10.771-44.733-21.529-67.109-32.274c-22.356-10.735-44.723-21.448-67.002-32.13c-2.996,2.82-6.133,4.121-9.695,4.694
		c-4.523,0.729-8.996,1.761-13.5,2.612c-24.751,4.677-47.527,13.943-67.923,28.9c-21.32,15.634-39.425,34.453-54.991,55.707
		c-8.967,12.243-16.294,25.51-20.96,40.018c-3.544,11.02-6.467,22.24-9.852,34.015
		C205.957,997.541,250.909,1014.88,295.443,1032.059z M828.057,822.165c-52.932,25.719-107.026,48.742-162.043,69.598
		c-17.144,6.499-34.482,12.489-51.735,18.701c-1.253,0.451-2.684,0.673-2.399,2.659c8.479,1.281,16.983,2.521,25.472,3.855
		c31.333,4.926,61.606,13.607,90.698,26.214c42.717,18.509,80.473,43.904,110.142,80.348c0.823,1.011,1.914,1.803,3.082,2.883
		c45.044-16.769,89.944-33.485,135.149-50.314c-2.048-7.196-3.821-14.252-6.088-21.146c-1.933-5.877-4.15-11.699-6.738-17.317
		c-7.147-15.514-16.406-29.775-26.656-43.395c-6.35-8.437-13.513-16.132-21.441-23.133c-15.425-13.622-32.057-25.602-49.425-36.586
		c-2.03-1.284-4.314-2.175-6.507-3.189c-3.162-1.462-6.478-2.643-9.495-4.355c-4.68-2.656-9.163-5.657-13.866-8.597
		C833.398,819.689,830.704,820.879,828.057,822.165z M683.386,622.424c-40.719,6.029-81.411,12.244-122.27,17.285
		c-0.445,0.055-0.838,0.532-1.679,1.096c1.785,3.504,3.238,7.173,7.467,8.782c8.048,3.062,15.953,6.546,24.12,9.239
		c11.68,3.85,23.641,5.261,35.796,2.024c7.837-2.087,15.406-4.87,22.393-9.022c7.87-4.677,15.521-9.738,23.508-14.201
		c6.077-3.395,8.932-8.881,11.707-14.699C683.832,622.631,683.589,622.394,683.386,622.424z M812.889,169.283
		c-0.562-1.203-0.796-2.566-1.126-3.869c-1.242-4.897-4.52-7.708-9.159-9.338c-12.076-4.243-26.249,3.714-29.447,16.614
		c-3.287,13.258,5.639,24.538,19.278,24.36C808.255,196.731,818.211,180.677,812.889,169.283z M450.466,161.273
		c1.944-6.352,0.636-12.25-4.628-16.9c-1.791-1.583-3.406-3.38-4.999-5.169c-2.279-2.559-5.057-3.84-8.492-4.012
		c-8.899-0.445-19.067,5.961-22.595,14.257c-1.552,3.649-1.653,7.353-0.562,11.061c2.659,9.04,11.848,15.755,21.283,15.692
		C437.89,176.6,447.475,171.048,450.466,161.273z M674.007,534.476c1.177-0.405,2.53-0.565,3.5-1.26
		c3.718-2.663,7.598-5.197,10.91-8.317c28.103-26.471,56.098-53.057,84.101-79.633c0.662-0.628,1.057-1.536,1.414-2.071
		c-11.286-1.109-18.858,5.038-25.574,12.837c-0.704,0.817-1.481,1.572-2.237,2.343c-22.501,22.935-45.008,45.864-67.498,68.809
		c-1.867,1.904-3.619,3.921-5.424,5.886C673.468,533.539,673.737,534.008,674.007,534.476z M376.386,515.349
		c3.038-2.246,6.062-4.519,8.973-6.925c21.848-18.056,43.679-36.134,65.492-54.232c7.894-6.55,15.748-13.149,23.562-19.793
		c1.416-1.204,2.657-2.659,3.758-4.16c0.367-0.499,0.345-1.737-0.033-2.225c-0.593-0.768-1.844-1.835-2.453-1.64
		c-2.264,0.724-4.604,1.604-6.502,2.992c-3.478,2.544-6.765,5.377-9.95,8.289c-11.354,10.382-22.465,21.036-33.978,31.237
		c-15.557,13.784-31.416,27.227-47.103,40.865c-1.98,1.721-4.606,2.943-5.595,7.268
		C374.576,516.161,375.607,515.925,376.386,515.349z M735.066,520.698c12.914-11.465,25.882-22.871,38.641-34.507
		c5.375-4.902,10.338-10.263,15.382-15.518c1.858-1.936,3.504-4.102,5.045-6.304c0.466-0.666,0.256-1.805,0.397-3.116
		c-4.403,0.602-6.79,3.292-9.362,5.518c-19.203,16.614-36.495,35.213-54.726,52.838c-0.765,0.74-1.409,1.638-1.954,2.556
		c-0.225,0.378-0.037,1.001-0.037,2.311C731.656,524.14,733.301,522.265,735.066,520.698z M434.335,510.84
		c16.169-13.498,32.303-27.039,48.401-40.622c2.677-2.259,5.179-4.737,7.624-7.248c0.635-0.652,0.752-1.811,1.399-3.5
		c-2.229,0.102-4-0.332-5.12,0.332c-3.224,1.912-6.407,4.015-9.214,6.489c-15.599,13.75-31.088,27.625-46.593,41.481
		c-1.808,1.616-3.565,3.31-5.176,5.118c-0.611,0.686-0.745,1.798-1.613,4.064C429.149,515.542,431.686,513.05,434.335,510.84z
		 M419.028,444.161c5.129-4.298,10.232-8.628,15.317-12.978c0.598-0.511,1.254-1.143,1.484-1.85
		c0.306-0.941,0.627-2.281,0.185-2.943c-0.423-0.632-1.9-0.989-2.763-0.795c-1.239,0.278-2.566,0.94-3.465,1.832
		c-4.554,4.521-9.016,9.138-13.416,13.81c-0.643,0.683-0.783,1.841-1.096,2.63C416.698,445.437,417.926,445.085,419.028,444.161z
		 M475.053,496.108c-4.945,4.885-9.794,9.869-14.595,14.896c-0.256,0.268,0.238,1.25,0.516,2.5
		c6.56-4.191,11.529-9.449,16.778-14.348c0.669-0.624,0.784-1.84,1.097-2.634C477.46,495.032,476.053,495.12,475.053,496.108z
		 M778.332,505.081c-4.911,3.352-8.889,8.851-9.463,13.347c4.072-3.386,7.443-6.765,10.8-10.149c0.696-0.701,1.13-1.662,2.181-3.255
		C780.098,505.024,778.948,504.661,778.332,505.081z"/>
	<path d="M968.344,342.604c0.628,2.671,1.041,4.729,1.598,6.748c7.771,28.134,13.668,56.695,18.995,85.362
		c4.045,21.764,7.512,43.641,10.877,65.523c1.682,10.937,2.711,21.984,3.763,33.008c1.49,15.595,2.889,31.203,4.042,46.826
		c2.467,33.431,3.982,66.9,2.823,100.434c-0.251,7.266-0.692,14.538-1.416,21.769c-0.229,2.289-1.209,4.821-2.64,6.604
		c-3.03,3.773-6.385,7.343-9.957,10.612c-12.984,11.885-27.115,22.3-41.717,32.1c-30.092,20.197-61.363,38.362-93.773,54.575
		c-2.157,1.08-4.235,2.32-6.332,3.517c-0.197,0.112-0.267,0.448-0.451,0.778c0.189,1.694,1.874,1.501,2.909,1.995
		c10.259,4.895,19.975,10.721,29.502,16.897c14.538,9.425,28.453,19.703,41.201,31.421c6.741,6.196,13.141,12.879,18.938,19.962
		c13.395,16.366,24.574,34.199,33.466,53.433c5.492,11.88,8.373,24.488,10.566,37.288c0.408,2.381,0.458,4.842,0.476,7.267
		c0.022,2.867-1.048,5.364-3.573,6.866c-3.699,2.202-7.36,4.58-11.31,6.227c-11.954,4.985-23.973,9.832-36.085,14.418
		c-99.945,37.845-199.92,75.612-299.879,113.42c-24.99,9.452-50.022,18.797-74.886,28.572c-5.985,2.353-11.209,2.361-17.109,0.037
		c-29.883-11.767-59.883-23.235-89.811-34.888c-93.053-36.233-186.103-72.474-279.119-108.803
		c-8.788-3.432-17.213-7.798-26.015-11.191c-5.857-2.258-7.816-6.32-7.292-11.985c0.472-5.101,1.228-10.186,2.075-15.242
		c4.756-28.359,16.908-53.46,34.428-75.969c17.019-21.864,36.496-41.275,59.579-56.855c16.988-11.467,35.485-19.43,55.517-23.673
		c5.788-1.226,11.755-1.606,17.639-2.373c1.271-0.166,2.541-0.331,4.366-0.568c-1.988-2.839-4.723-3.439-7.014-4.549
		c-30.371-14.714-60.779-29.351-91.178-44.006c-10.944-5.276-21.873-10.58-32.844-15.8c-3.882-1.847-8.317-2.875-11.673-5.383
		c-3.251-2.429-6.514-4.689-10.026-6.695c-1.309-0.748-2.586-2.075-3.189-3.443c-2.067-4.68-4.284-9.371-5.621-14.281
		c-3.723-13.671-4.712-27.554-3.262-41.746c6.206-60.703,20.604-119.669,37.386-178.13c16.063-55.957,37.577-109.81,63.205-162.048
		c2.012-4.102,3.897-8.266,5.935-12.603c-1.243-1.033-2.187-1.981-3.282-2.702c-13.352-8.796-25.506-19.107-37.494-29.624
		c-5.305-4.654-9.981-9.884-13.789-15.853c-5.174-8.111-8.082-16.947-9.229-26.525c-2.457-20.514,1.281-39.872,10.726-58.067
		c4.97-9.574,10.359-18.989,16.295-27.991c13.704-20.78,28.964-40.402,45.843-58.724c10.833-11.758,22.59-22.492,35.808-31.558
		c9.888-6.782,20.518-11.935,32.238-14.69c8.474-1.992,17.064-2.765,25.741-2.026c30.966,2.637,59.399,13.094,86.318,28.153
		c1.645,0.92,3.205,2.009,4.728,3.123c1.517,1.109,2.938,2.35,4.521,3.63c2.071,0,4.235,0.186,6.359-0.027
		c51.983-5.208,104.11-5.832,156.273-4.629c15.111,0.349,30.21,1.604,45.29,2.761c11.302,0.868,22.572,2.173,33.843,3.413
		c16.397,1.803,32.493,5.27,48.517,9.077c14.437,3.431,28.853,6.953,43.286,10.402c1.817,0.434,3.682,0.67,5.678,1.025
		c1.709-1.44,3.379-2.776,4.971-4.199c22.674-20.255,49.069-33.357,78.648-39.713c26.909-5.782,52.46-2.04,76.474,12.221
		c24.91,14.794,43.372,35.466,57.183,60.52c14.156,25.68,24.295,52.955,31.273,81.438c3.612,14.745,6.247,29.583,6.269,44.819
		c0.014,9.807-1.372,19.436-4.265,28.751c-8.089,26.042-26.577,41.201-52.089,48.573c-7.291,2.107-14.906,2.419-22.492,2.497
		C973.049,342.132,971.001,342.402,968.344,342.604z M176.578,722.18c1.223-2.988,2.401-5.671,3.43-8.411
		c10.255-27.305,20.715-54.521,33.265-80.885c29.247-61.442,58.663-122.8,90.254-183.086c0.995-1.898,2.351-3.85,2.554-5.876
		c0.715-7.129,5.268-12.216,8.875-17.809c2.036-3.156,4.553-6.021,6.413-9.269c20.146-35.182,41.149-69.822,64.632-102.905
		c13.46-18.962,27.45-37.51,43.463-54.432c2.781-2.939,5.714-5.75,8.743-8.433c2.434-2.155,5.012-4.01,8.743-3.112
		c1.451,0.349,3.206-0.247,4.754-0.666c19.24-5.206,38.928-5.95,58.677-5.701c28.668,0.36,57.163,3.381,85.64,6.329
		c24.17,2.501,48.228,5.909,72.051,10.833c29.9,6.18,59.321,14.055,88.121,24.241c15.319,5.418,28.581,13.899,39.842,25.596
		c17.646,18.329,34.163,37.588,48.634,58.553c17.531,25.399,32.171,52.536,46.556,79.726
		c25.767,48.703,48.919,98.724,72.347,148.587c10.334,21.995,20.166,44.225,30.243,66.341c0.593,1.302,0.702,3.273,3.245,2.603
		c0-2.421,0.103-4.85-0.016-7.268c-1.216-24.827-2.255-49.665-3.789-74.472c-0.95-15.363-2.493-30.696-4.09-46.008
		c-1.512-14.505-2.913-29.054-5.305-43.428c-4.299-25.831-8.995-51.606-14.095-77.292c-5.627-28.34-12.247-56.454-20.959-84.053
		c-9.129-28.923-20.824-56.765-34.389-83.848c-1.279-2.553-2.161-5.504-5.024-7.493c-1.113,1.109-2.037,2.015-2.946,2.937
		c-7.399,7.5-14.612,15.195-22.237,22.457c-9.559,9.104-20.948,15.151-33.675,18.664c-20.253,5.591-40.633,5.251-60.944,0.702
		c-25.241-5.653-45.583-19.585-61.723-39.332c-18.14-22.192-24.886-48.374-22.569-76.575c1.766-21.49,10.368-40.657,23.786-57.605
		c1.228-1.551,3.47-2.638,2.99-5.411c-2.35-0.565-4.684-1.237-7.061-1.68c-21.262-3.962-42.739-6.369-64.279-7.926
		c-19.934-1.441-39.927-2.651-59.902-2.8c-29.176-0.219-58.36,0.594-87.541,0.998c-1.237,0.017-2.766-0.346-3.3,1.317
		c2.421,4.882,5.145,9.556,7.125,14.526c5.432,13.631,6.288,27.866,4.43,42.266c-2.308,17.878-10.448,32.776-23.864,44.775
		c-3.22,2.88-6.55,5.65-9.964,8.295c-33.805,26.186-72.021,38.611-114.799,36.318c-16.033-0.86-31.45-4.372-45.661-13.145
		c-0.891,1.096-1.824,2.025-2.499,3.113c-2.993,4.819-5.994,9.636-8.845,14.539c-28.426,48.881-53.105,99.666-74.439,151.958
		c-34.422,84.373-57.619,171.927-70.739,262.109c-1.709,11.749-2.91,23.646-1.969,35.555c0.551,6.974,1.808,13.896,2.827,20.829
		C171.925,719.694,172.992,721.508,176.578,722.18z M362.033,572.422c-0.157,4.561-0.333,7.181-0.323,9.801
		c0.08,19.996,0.263,39.993,0.255,59.989c-0.002,5.183,2.044,9.485,5.025,13.361c1.787,2.324,4.194,4.199,6.442,6.137
		c26.831,23.144,54.828,44.783,84.24,64.542c43.174,29.005,89.087,52.966,136.806,73.54c0.701,0.302,1.544,0.273,2.023,0.351
		c5.799-3.002,11.299-5.874,16.822-8.703c14.667-7.514,29.236-15.214,43.008-24.298c23.451-15.469,47.073-30.694,70.177-46.668
		c26.013-17.986,51.025-37.309,74.446-58.651c6.894-6.282,10.269-13.606,10.227-22.77c-0.017-3.781,0.124-7.566,0.314-11.343
		c0.815-16.188,1.694-32.373,2.484-48.563c0.07-1.425,0.888-3.23-1.46-4.291c-0.884,0.835-1.88,1.691-2.781,2.637
		c-20.295,21.315-44.998,32.073-74.577,31.204c-2.7-0.079-5.407,0.065-8.107-0.023c-2.924-0.095-5.843-0.341-8.861-0.527
		c1.959,7.491,1.557,8.782-4.108,13.403c-1.255,1.023-2.537,2.033-3.9,2.902c-7.283,4.641-14.508,9.382-21.925,13.8
		c-6.728,4.007-13.338,8.099-19.705,12.718c-8.281,6.008-17.042,11.462-26.03,16.358c-10.862,5.916-22.762,8.63-35.168,7.5
		c-9.701-0.884-19.061-3.451-28.152-7.135c-17.756-7.197-35.722-13.882-53.413-21.23c-7.781-3.232-15.515-5.977-23.991-6.401
		c-1.82-0.091-3.685-0.714-5.381-1.438c-1.806-0.771-2.016-3.838-0.318-4.665c1.895-0.923,3.971-1.817,6.031-1.996
		c8.34-0.725,16.704-1.175,25.06-1.714c5.659-0.365,11.334-0.556,16.976-1.097c12.634-1.212,25.26-2.518,37.873-3.924
		c15.029-1.676,30.078-3.236,45.053-5.312c25.398-3.521,50.748-7.389,76.109-11.171c2.241-0.334,4.416-1.109,8.226-2.094
		c-2.629-0.783-3.628-1.057-4.612-1.377c-15.497-5.045-28.594-13.829-39.844-25.519c-13.126-13.639-22.573-29.576-29.477-47.097
		c-7.703-19.549-11.36-39.941-12.545-60.842c-0.12-2.109-0.473-4.206-0.682-5.999c-9.397-5.393-18.914-7.982-26.591-7.261
		c-17.867,1.678-33.159,8.918-45.518,20.82c-2.036,11.003-3.511,21.453-5.955,31.671c-5.344,22.344-14.689,42.902-29.318,60.791
		c-3.92,4.794-8.255,9.306-12.789,13.531c-21.726,20.243-47.851,26.033-76.593,22.792c-4.014-0.453-8.032-1.106-11.962-2.035
		c-17.539-4.145-32.485-12.966-45.308-25.517C367.938,578.356,365.681,576.063,362.033,572.422z M323.254,449.586
		c9.212-5.586,18.395-11.22,27.642-16.749c17.451-10.434,33.489-22.887,48.809-36.087c14.335-12.351,26.679-26.811,37.106-42.713
		c14.955-22.809,26.909-46.777,28.94-74.675c0.56-7.688,6.432-9.79,12.662-5.071c1.285,0.974,2.485,2.097,3.567,3.293
		c2.899,3.203,5.782,6.427,8.55,9.744c17.867,21.408,37.178,41.435,58.265,59.662c26.045,22.513,54.113,42.11,85.342,56.883
		c7.05,3.335,14.01,6.837,21.945,8.018c13.644,2.031,27.375,2.938,41.105,3.943c0.629,0.046,1.294-0.392,2.78-0.88
		c-2.104-1.518-3.523-2.62-5.018-3.606c-6.537-4.309-13.255-8.363-19.606-12.93c-7.23-5.199-14.298-10.655-21.115-16.382
		c-3.04-2.554-5.421-5.948-7.818-9.17c-0.621-0.835-0.689-2.92-0.081-3.602c0.653-0.733,2.612-1.002,3.634-0.581
		c3.968,1.633,7.966,3.328,11.635,5.529c13.427,8.057,26.719,16.337,40.074,24.513c24.456,14.972,50.911,24.674,79.054,29.892
		c7.962,1.476,15.926,3.209,24.087,1.629c0.807-0.156,1.496-0.922,3.14-1.989c-3.563-1.144-6.092-1.952-8.619-2.767
		c-18.055-5.826-35.421-13.178-51.271-23.726c-4.704-3.131-9.234-6.606-13.437-10.376c-2.336-2.095-3.996-5.027-5.654-7.768
		c-1.029-1.701,0.711-4.23,2.672-3.844c2.867,0.564,5.799,1.31,8.4,2.594c5.32,2.626,10.439,5.661,15.639,8.53
		c17.566,9.69,35.966,17.342,55.429,22.27c11.239,2.846,22.566,5.347,33.863,7.964c4.411,1.022,8.797,2.264,13.861,2.452
		c-0.707-1.72-1.11-2.99-1.723-4.151c-19.179-36.324-43.301-69.013-71.905-98.485c-10.394-10.71-22.35-18.67-36.519-23.202
		c-13.614-4.355-27.231-8.733-40.991-12.588c-23.917-6.701-48.141-12.096-72.771-15.48c-13.098-1.8-26.208-3.541-39.343-5.043
		c-14.481-1.656-28.98-3.2-43.502-4.435c-12.911-1.098-25.862-1.725-38.798-2.526c-23.846-1.478-47.407,0.997-70.646,4.922
		c-24.918,30.266-78.96,109.556-84.7,124.685c1.708-1.317,2.765-1.962,3.614-2.815c6.096-6.126,12.125-12.318,18.225-18.441
		c3.811-3.825,7.671-7.603,11.586-11.321c1.163-1.104,2.534-2.017,3.904-2.867c1.416-0.88,3.474,0.387,3.406,2.116
		c-0.052,1.322-0.11,2.769-0.662,3.923c-1.395,2.914-2.908,5.797-4.659,8.509c-9.735,15.083-21.464,28.443-35.14,40.07
		c-6.585,5.599-13.29,11.058-19.907,16.621c-1.646,1.384-3.568,2.669-4.666,4.434C329.394,434.332,325.495,441.359,323.254,449.586z
		 M160.125,979.862c45.832,17.679,90.784,35.018,135.317,52.197c0.825-0.38,1.145-0.429,1.299-0.616
		c0.686-0.828,1.382-1.658,1.971-2.555c9.55-14.551,21.161-27.283,34.143-38.817c19.933-17.711,42.242-31.807,66.288-43.157
		c42.712-20.161,87.834-31.067,134.829-34.638c1.378-0.105,3.274,0.709,4.231-2.082c-22.333-10.613-44.745-21.129-67.047-31.871
		c-22.363-10.771-44.733-21.529-67.109-32.274c-22.356-10.735-44.723-21.448-67.002-32.13c-2.996,2.82-6.133,4.121-9.695,4.694
		c-4.523,0.729-8.996,1.761-13.5,2.612c-24.751,4.677-47.527,13.943-67.923,28.9c-21.32,15.634-39.425,34.453-54.991,55.707
		c-8.967,12.243-16.294,25.51-20.96,40.018C166.433,956.868,163.51,968.088,160.125,979.862z M836.206,818.392
		c-2.808,1.297-5.502,2.487-8.149,3.773c-52.932,25.719-107.026,48.742-162.043,69.598c-17.144,6.499-34.482,12.489-51.735,18.701
		c-1.253,0.451-2.684,0.673-2.399,2.659c8.479,1.281,16.983,2.521,25.472,3.855c31.333,4.926,61.606,13.607,90.698,26.214
		c42.717,18.509,80.473,43.904,110.142,80.348c0.823,1.011,1.914,1.803,3.082,2.883c45.044-16.769,89.944-33.485,135.149-50.314
		c-2.048-7.196-3.821-14.252-6.088-21.146c-1.933-5.877-4.15-11.699-6.738-17.317c-7.147-15.514-16.406-29.775-26.656-43.395
		c-6.35-8.437-13.513-16.132-21.441-23.133c-15.425-13.622-32.057-25.602-49.425-36.586c-2.03-1.284-4.314-2.175-6.507-3.189
		c-3.162-1.462-6.478-2.643-9.495-4.355C845.393,824.333,840.909,821.332,836.206,818.392z M682.71,767.825
		c-3.527,2.104-6.078,3.498-8.499,5.09c-13.993,9.204-28.269,17.925-43.199,25.539c-8.157,4.16-16.782,7.449-24.141,13.084
		c-2.345,1.796-4.974,1.983-7.689,1.116c-3.596-1.148-7.203-2.282-10.731-3.617c-26.781-10.129-52.9-21.724-78.088-35.377
		c-2.513-1.362-4.893-3.167-8.422-3.715c-0.182,2.082-0.42,3.614-0.432,5.147c-0.076,9.452-0.122,18.906-0.137,28.359
		c-0.018,12.161-0.402,24.294-1.968,36.378c-0.459,3.536-1.82,5.756-5.228,7.372c-7.858,3.727-16.12,6.096-24.43,8.425
		c-1.081,0.303-1.988,1.225-3.537,2.223c35.55,17.547,70.35,34.725,105.219,51.935c5.66-2.418,11.277-5.042,17.056-7.238
		c11.597-4.406,23.236-8.71,34.941-12.82c29.018-10.19,57.794-21.012,86.203-32.794c2.558-1.061,5.581-1.538,7.537-4.156
		c-8.297-2.416-16.362-4.569-24.3-7.12c-11.541-3.709-13.518-6.575-12.961-18.924c0.815-18.068,1.862-36.126,2.798-54.189
		C682.758,771.48,682.71,770.412,682.71,767.825z M420.502,398.853c57.617,1.726,113.213,2.48,168.827,1.995
		c1.238-0.011,2.728,0.502,4.142-1.749c-7.099-4.634-14.296-9.181-21.131-14.224c-6.957-5.133-13.909-10.285-20.658-15.685
		c-6.538-5.23-12.949-10.638-19.17-16.24c-6.424-5.785-12.679-11.771-18.774-17.902c-6.094-6.13-12.036-12.426-17.789-18.877
		c-5.716-6.409-11.113-13.101-16.691-19.718c-0.628,0.725-1.067,1.06-1.269,1.504c-0.332,0.732-0.59,1.518-0.743,2.308
		c-3.166,16.359-9.676,31.423-17.67,45.927c-8.914,16.173-19.615,31.049-32.114,44.642
		C425.483,392.987,423.623,395.249,420.502,398.853z M684.428,622.928c-0.596-0.298-0.839-0.534-1.042-0.504
		c-40.719,6.029-81.411,12.244-122.27,17.285c-0.445,0.055-0.838,0.532-1.679,1.096c1.785,3.504,3.238,7.173,7.467,8.782
		c8.048,3.062,15.953,6.546,24.12,9.239c11.68,3.85,23.641,5.261,35.796,2.024c7.837-2.087,15.406-4.87,22.393-9.022
		c7.87-4.677,15.521-9.738,23.508-14.201C678.798,634.232,681.653,628.746,684.428,622.928z M849.756,482.076
		c-0.523,1.698-1.321,3.363-1.526,5.098c-2.487,21.073-7.96,41.255-17.57,60.252c-0.956,1.89-1.811,3.99-2.031,6.064
		c-0.709,6.703-1.128,13.439-1.581,20.167c-0.063,0.93-0.455,2.167,1.3,2.839c0.574-0.657,1.324-1.346,1.874-2.17
		c6.282-9.425,12.533-18.87,18.793-28.31c10.16-15.32,19.404-31.155,25.876-48.418c2.737-7.301,4.887-14.841,6.945-22.371
		c1.384-5.064,1.067-10-2.01-14.742c-2.925-4.509-5.119-9.487-7.731-14.206c-0.886-1.601-2.068-3.037-3.041-4.441
		c-6.364-0.762-11.41,1.243-16.012,4.953c-0.212,2.038-0.515,3.904-0.57,5.778c-0.057,1.969-1.279,4.045,0.18,6.025
		c3.605-1.676,6.925-3.403,10.387-4.771c2.697-1.065,4.771-0.459,5.856,1.142c1.39,2.052,1.026,4.162-0.055,6.12
		c-0.771,1.398-1.858,2.637-2.899,3.867c-1.382,1.632-2.858,3.185-4.307,4.787c0.594,3.335,1.274,6.488,1.688,9.676
		c0.346,2.661,0.742,5.398,0.487,8.04c-0.83,8.587-1.869,17.158-3.017,25.709c-0.279,2.075-1.14,4.118-2.011,6.051
		c-0.62,1.376-3.663,1.17-4.056-0.261c-0.564-2.05-1.013-4.185-1.103-6.302c-0.262-6.199-0.266-12.409-0.48-18.611
		C853.003,490.037,852.831,486.011,849.756,482.076z M346.912,573.3c0.572-0.178,1.144-0.356,1.715-0.534
		c-0.315-5.889-0.696-11.775-0.921-17.667c-0.136-3.564-0.94-6.841-2.551-10.074c-5.92-11.881-10.207-24.363-12.876-37.367
		c-1.246-6.068-2.237-12.191-3.208-18.31c-0.491-3.093-1.352-5.7-5.358-6.457c-0.108,1.204-0.4,2.216-0.252,3.16
		c1.917,12.274,4.55,24.372,8.862,36.065c1.021,2.768,1.79,5.641,2.479,8.512c0.334,1.393-0.185,2.625-1.884,2.876
		c-5.088-3.832-6.256-4.716-8.553-10.395c-2.924-7.231-5.61-14.599-7.752-22.093c-2.346-8.208-3.956-16.628-5.887-24.953
		c-1.915-1.014-3.14,0.016-3.934,1.553c-3.461,6.7-6.837,13.444-10.372,20.425C307.555,527.073,326.363,550.772,346.912,573.3z
		 M553.684,449.885c4.37-2.248,8.512-4.643,12.869-6.548c4.428-1.936,8.978-3.723,13.637-4.962
		c4.915-1.308,9.995-2.337,15.056-2.661c4.792-0.307,9.658,0.385,14.481,0.775c4.724,0.382,9.007,3.042,14.296,3.217
		c0-3.918,0.083-7.411-0.023-10.898c-0.104-3.421,0.602-6.942-0.758-10.435c-1.277-0.207-2.309-0.536-3.334-0.518
		c-21.304,0.377-42.607,0.786-63.91,1.232c-0.74,0.015-1.47,0.468-2.117,0.688C552.75,426.141,552.6,443.337,553.684,449.885z
		 M792.435,197.049c15.821-0.318,25.777-16.373,20.455-27.766c-0.562-1.203-0.796-2.566-1.126-3.869
		c-1.242-4.897-4.52-7.708-9.159-9.338c-12.076-4.243-26.249,3.714-29.447,16.614C769.869,185.948,778.796,197.228,792.435,197.049z
		 M430.474,176.202c7.416,0.398,17.001-5.154,19.992-14.929c1.944-6.352,0.636-12.25-4.628-16.9
		c-1.791-1.583-3.406-3.38-4.999-5.169c-2.279-2.559-5.057-3.84-8.492-4.012c-8.899-0.445-19.067,5.961-22.595,14.257
		c-1.552,3.649-1.653,7.353-0.562,11.061C411.849,169.55,421.039,176.265,430.474,176.202z M673.198,533.071
		c0.269,0.468,0.539,0.937,0.808,1.405c1.177-0.405,2.53-0.565,3.5-1.26c3.718-2.663,7.598-5.197,10.91-8.317
		c28.103-26.471,56.098-53.057,84.101-79.633c0.662-0.628,1.057-1.536,1.414-2.071c-11.286-1.109-18.858,5.038-25.574,12.837
		c-0.704,0.817-1.481,1.572-2.237,2.343c-22.501,22.935-45.008,45.864-67.498,68.809
		C676.756,529.09,675.004,531.106,673.198,533.071z M372.558,517.025c2.018-0.864,3.049-1.1,3.828-1.676
		c3.038-2.246,6.062-4.519,8.973-6.925c21.848-18.056,43.679-36.134,65.492-54.232c7.894-6.55,15.748-13.149,23.562-19.793
		c1.416-1.204,2.657-2.659,3.758-4.16c0.367-0.499,0.345-1.737-0.033-2.225c-0.593-0.768-1.844-1.835-2.453-1.64
		c-2.264,0.724-4.604,1.604-6.502,2.992c-3.478,2.544-6.765,5.377-9.95,8.289c-11.354,10.382-22.465,21.036-33.978,31.237
		c-15.557,13.784-31.416,27.227-47.103,40.865C376.173,511.478,373.547,512.699,372.558,517.025z M728.45,524.476
		c3.206-0.337,4.852-2.212,6.616-3.778c12.914-11.465,25.882-22.871,38.641-34.507c5.375-4.902,10.338-10.263,15.382-15.518
		c1.858-1.936,3.504-4.102,5.045-6.304c0.466-0.666,0.256-1.805,0.397-3.116c-4.403,0.602-6.79,3.292-9.362,5.518
		c-19.203,16.614-36.495,35.213-54.726,52.838c-0.765,0.74-1.409,1.638-1.954,2.556C728.263,522.544,728.45,523.167,728.45,524.476z
		 M424.043,516.954c5.107-1.412,7.644-3.903,10.292-6.114c16.169-13.498,32.303-27.039,48.401-40.622
		c2.677-2.259,5.179-4.737,7.624-7.248c0.635-0.652,0.752-1.811,1.399-3.5c-2.229,0.102-4-0.332-5.12,0.332
		c-3.224,1.912-6.407,4.015-9.214,6.489c-15.599,13.75-31.088,27.625-46.593,41.481c-1.808,1.616-3.565,3.31-5.176,5.118
		C425.044,513.576,424.91,514.688,424.043,516.954z M415.273,443.867c1.425,1.571,2.652,1.218,3.755,0.295
		c5.129-4.298,10.232-8.628,15.317-12.978c0.598-0.511,1.254-1.143,1.484-1.85c0.306-0.941,0.627-2.281,0.185-2.943
		c-0.423-0.632-1.9-0.989-2.763-0.795c-1.239,0.278-2.566,0.94-3.465,1.832c-4.554,4.521-9.016,9.138-13.416,13.81
		C415.726,441.92,415.586,443.078,415.273,443.867z M478.849,496.521c-1.389-1.489-2.797-1.401-3.796-0.413
		c-4.945,4.885-9.794,9.869-14.595,14.896c-0.256,0.268,0.238,1.25,0.516,2.5c6.56-4.191,11.529-9.449,16.778-14.348
		C478.421,498.531,478.536,497.315,478.849,496.521z M781.849,505.024c-1.751,0-2.902-0.363-3.517,0.057
		c-4.911,3.352-8.889,8.851-9.463,13.347c4.072-3.386,7.443-6.765,10.8-10.149C780.365,507.578,780.799,506.617,781.849,505.024z
		 M616.332,213.271c7.531,9.721,16.931,15.937,29.801,14.662c8.865-0.878,16.427-5.018,23.24-10.558
		c1.002-0.815,1.737-2.067,2.334-3.249c1.805-3.578-0.693-7.613-4.611-7.136c-2.904,0.354-5.704,1.514-8.572,2.227
		c-4.175,1.037-8.332,2.226-12.567,2.908c-3.218,0.518-6.427-0.07-9.362-1.823c-6.65-3.972-10.635-9.828-12.292-17.285
		c-0.263-1.182,0.301-2.548,0.471-3.752c8.434-2.862,15.08-7.956,21.478-13.388c1.83-1.554,3.545-3.398,4.821-5.42
		c3.342-5.294,1.482-10.942-4.349-13.209c-2.492-0.969-5.2-1.454-7.852-1.926c-9.297-1.656-18.608-3.235-27.922-4.793
		c-3.462-0.579-6.939-1.086-10.423-1.51c-5.252-0.639-7.67,2.116-7.073,6.973c0.719,5.852,2.783,10.856,6.277,15.521
		c2.869,3.831,6.372,7.259,8.487,11.816c-1.288,1.987-2.376,3.844-3.637,5.576c-4.291,5.895-10.081,8.65-17.411,8.538
		c-4.112-0.063-8.044-0.672-11.896-2.052c-3.81-1.366-7.643-2.664-11.466-3.993c-2.028-0.705-3.846-0.101-5.159,1.369
		c-1.358,1.52-1.617,3.666-0.547,5.323c2.474,3.828,5.326,7.586,9.452,9.619c3.576,1.761,7.594,2.664,11.467,3.772
		c4.726,1.351,9.475,1.575,14.417,0.779c6.265-1.01,11.797-3.55,17.33-7.131C612.711,207.99,614.374,210.745,616.332,213.271z
		 M587.053,583.93c0.231-1.215,0.667-2.502,0.69-3.796c0.216-11.857,0.361-23.716,0.523-35.574c0.004-0.268,0.038-0.596-0.094-0.794
		c-0.556-0.837-1.03-2.089-1.799-2.325c-0.829-0.254-2.166,0.197-2.902,0.803c-1.224,1.008-2.344,2.265-3.162,3.625
		c-5.558,9.238-11.08,18.499-16.467,27.838c-0.877,1.521-1.028,3.461-1.499,5.152C568.568,581.458,581.751,584.16,587.053,583.93z"
		/>
</g>
</svg>
